<svg width="112" height="54" viewBox="0 0 112 54" fill="none" xmlns="http://www.w3.org/2000/svg">
<line y1="-1.5" x2="37.1806" y2="-1.5" transform="matrix(0.914479 0.404632 -0.888631 0.458623 22 38.9234)" stroke="#FA91BB" stroke-width="3"/>
<line y1="-1.5" x2="37.1796" y2="-1.5" transform="matrix(0.914466 -0.404663 0.888648 0.45859 56.0005 53.9686)" stroke="#FA91BB" stroke-width="3"/>
<path d="M20.0631 6.384C20.0098 6.47467 19.9538 6.54133 19.8951 6.584C19.8365 6.62667 19.7618 6.648 19.6711 6.648C19.5751 6.648 19.4658 6.60533 19.3431 6.52C19.2205 6.42933 19.0658 6.33067 18.8791 6.224C18.6978 6.112 18.4791 6.01333 18.2231 5.928C17.9671 5.83733 17.6605 5.792 17.3031 5.792C16.9671 5.792 16.6711 5.83733 16.4151 5.928C16.1645 6.01333 15.9538 6.13333 15.7831 6.288C15.6125 6.43733 15.4818 6.616 15.3911 6.824C15.3058 7.02667 15.2631 7.248 15.2631 7.488C15.2631 7.79733 15.3405 8.05333 15.4951 8.256C15.6551 8.45867 15.8631 8.632 16.1191 8.776C16.3751 8.92 16.6658 9.04533 16.9911 9.152C17.3165 9.25867 17.6498 9.37067 17.9911 9.488C18.3325 9.6 18.6658 9.73067 18.9911 9.88C19.3165 10.0293 19.6071 10.2187 19.8631 10.448C20.1191 10.672 20.3245 10.9493 20.4791 11.28C20.6391 11.6053 20.7191 12.0053 20.7191 12.48C20.7191 12.9867 20.6311 13.4613 20.4551 13.904C20.2845 14.3467 20.0338 14.7333 19.7031 15.064C19.3725 15.3947 18.9645 15.656 18.4791 15.848C17.9991 16.0347 17.4525 16.128 16.8391 16.128C16.4711 16.128 16.1138 16.0907 15.7671 16.016C15.4205 15.9467 15.0925 15.848 14.7831 15.72C14.4738 15.5867 14.1831 15.4293 13.9111 15.248C13.6445 15.0613 13.4045 14.8533 13.1911 14.624L13.6791 13.808C13.7271 13.744 13.7831 13.6907 13.8471 13.648C13.9165 13.6053 13.9938 13.584 14.0791 13.584C14.1911 13.584 14.3191 13.6427 14.4631 13.76C14.6125 13.8773 14.7938 14.008 15.0071 14.152C15.2258 14.2907 15.4845 14.4187 15.7831 14.536C16.0871 14.6533 16.4551 14.712 16.8871 14.712C17.2391 14.712 17.5538 14.6667 17.8311 14.576C18.1085 14.48 18.3405 14.3467 18.5271 14.176C18.7191 14 18.8658 13.7893 18.9671 13.544C19.0685 13.2987 19.1191 13.0267 19.1191 12.728C19.1191 12.392 19.0418 12.1173 18.8871 11.904C18.7325 11.6907 18.5271 11.512 18.2711 11.368C18.0151 11.224 17.7245 11.1013 17.3991 11C17.0738 10.8987 16.7405 10.7947 16.3991 10.688C16.0578 10.576 15.7245 10.448 15.3991 10.304C15.0738 10.16 14.7831 9.97333 14.5271 9.744C14.2711 9.50933 14.0658 9.21867 13.9111 8.872C13.7565 8.52 13.6791 8.088 13.6791 7.576C13.6791 7.16533 13.7591 6.768 13.9191 6.384C14.0791 6 14.3111 5.66133 14.6151 5.368C14.9245 5.06933 15.3031 4.832 15.7511 4.656C16.1991 4.47467 16.7111 4.384 17.2871 4.384C17.9325 4.384 18.5245 4.488 19.0631 4.696C19.6071 4.89867 20.0791 5.192 20.4791 5.576L20.0631 6.384ZM28.1514 9.392C28.1034 9.45067 28.0554 9.49867 28.0074 9.536C27.9647 9.568 27.9007 9.584 27.8154 9.584C27.73 9.584 27.6394 9.552 27.5434 9.488C27.4527 9.41867 27.3354 9.34667 27.1914 9.272C27.0527 9.192 26.882 9.12 26.6794 9.056C26.482 8.98667 26.2367 8.952 25.9434 8.952C25.5594 8.952 25.2207 9.02133 24.9274 9.16C24.634 9.29867 24.3887 9.496 24.1914 9.752C23.9994 10.008 23.8527 10.32 23.7514 10.688C23.65 11.056 23.5994 11.4693 23.5994 11.928C23.5994 12.4027 23.6527 12.8267 23.7594 13.2C23.866 13.568 24.018 13.88 24.2154 14.136C24.4127 14.3867 24.6527 14.5787 24.9354 14.712C25.218 14.84 25.5327 14.904 25.8794 14.904C26.2154 14.904 26.4927 14.864 26.7114 14.784C26.93 14.6987 27.1114 14.608 27.2554 14.512C27.3994 14.416 27.5194 14.328 27.6154 14.248C27.7114 14.1627 27.81 14.12 27.9114 14.12C28.0394 14.12 28.138 14.168 28.2074 14.264L28.6554 14.84C28.4687 15.0693 28.258 15.264 28.0234 15.424C27.794 15.584 27.5487 15.7147 27.2874 15.816C27.026 15.9173 26.7514 15.992 26.4634 16.04C26.1807 16.088 25.8927 16.112 25.5994 16.112C25.0927 16.112 24.618 16.0187 24.1754 15.832C23.738 15.6453 23.3567 15.3733 23.0314 15.016C22.7114 14.6587 22.458 14.2213 22.2714 13.704C22.0847 13.1813 21.9914 12.5893 21.9914 11.928C21.9914 11.3253 22.074 10.768 22.2394 10.256C22.41 9.744 22.658 9.304 22.9834 8.936C23.314 8.56267 23.7194 8.272 24.1994 8.064C24.6794 7.85067 25.2287 7.744 25.8474 7.744C26.4287 7.744 26.9407 7.83733 27.3834 8.024C27.826 8.21067 28.2207 8.47467 28.5674 8.816L28.1514 9.392ZM31.5836 9.432C31.845 8.89867 32.1596 8.48 32.5276 8.176C32.8956 7.872 33.3383 7.72 33.8556 7.72C34.0316 7.72 34.197 7.74133 34.3516 7.784C34.5116 7.82133 34.6503 7.88 34.7676 7.96L34.6636 9.136C34.6263 9.28 34.5383 9.352 34.3996 9.352C34.325 9.352 34.213 9.33867 34.0636 9.312C33.9143 9.28 33.7543 9.264 33.5836 9.264C33.333 9.264 33.1116 9.30133 32.9196 9.376C32.7276 9.44533 32.5543 9.552 32.3996 9.696C32.2503 9.83467 32.117 10.008 31.9996 10.216C31.8823 10.4187 31.773 10.6507 31.6716 10.912V16H30.1116V7.872H31.0076C31.1783 7.872 31.293 7.904 31.3516 7.968C31.4156 8.02667 31.461 8.13333 31.4876 8.288L31.5836 9.432ZM39.1381 7.744C39.7355 7.744 40.2741 7.84267 40.7541 8.04C41.2395 8.232 41.6501 8.512 41.9861 8.88C42.3275 9.24267 42.5888 9.68267 42.7701 10.2C42.9515 10.712 43.0421 11.288 43.0421 11.928C43.0421 12.568 42.9515 13.1467 42.7701 13.664C42.5888 14.1813 42.3275 14.6213 41.9861 14.984C41.6501 15.3467 41.2395 15.6267 40.7541 15.824C40.2741 16.016 39.7355 16.112 39.1381 16.112C38.5355 16.112 37.9915 16.016 37.5061 15.824C37.0261 15.6267 36.6155 15.3467 36.2741 14.984C35.9328 14.6213 35.6688 14.1813 35.4821 13.664C35.3008 13.1467 35.2101 12.568 35.2101 11.928C35.2101 11.288 35.3008 10.712 35.4821 10.2C35.6688 9.68267 35.9328 9.24267 36.2741 8.88C36.6155 8.512 37.0261 8.232 37.5061 8.04C37.9915 7.84267 38.5355 7.744 39.1381 7.744ZM39.1381 14.896C39.9061 14.896 40.4795 14.6373 40.8581 14.12C41.2368 13.6027 41.4261 12.8747 41.4261 11.936C41.4261 10.9973 41.2368 10.2693 40.8581 9.752C40.4795 9.22933 39.9061 8.968 39.1381 8.968C38.3595 8.968 37.7781 9.22933 37.3941 9.752C37.0155 10.2693 36.8261 10.9973 36.8261 11.936C36.8261 12.8747 37.0155 13.6027 37.3941 14.12C37.7781 14.6373 38.3595 14.896 39.1381 14.896ZM46.3835 4.192V16H44.8155V4.192H46.3835ZM50.2116 4.192V16H48.6436V4.192H50.2116ZM61.7266 9.84C61.4706 9.504 61.1933 9.26933 60.8946 9.136C60.6013 9.00267 60.2706 8.936 59.9026 8.936C59.188 8.936 58.6333 9.19467 58.2386 9.712C57.8493 10.224 57.6546 10.9733 57.6546 11.96C57.6546 12.4773 57.6973 12.92 57.7826 13.288C57.8733 13.6507 58.0013 13.9493 58.1666 14.184C58.3373 14.4133 58.5453 14.584 58.7906 14.696C59.036 14.8027 59.3133 14.856 59.6226 14.856C60.076 14.856 60.468 14.7547 60.7986 14.552C61.1293 14.3493 61.4386 14.064 61.7266 13.696V9.84ZM63.2946 4.192V16H62.3506C62.132 16 61.996 15.896 61.9426 15.688L61.8066 14.752C61.46 15.1627 61.0653 15.4933 60.6226 15.744C60.1853 15.9893 59.6786 16.112 59.1026 16.112C58.6386 16.112 58.2173 16.0213 57.8386 15.84C57.4653 15.6587 57.1453 15.3947 56.8786 15.048C56.612 14.696 56.4066 14.2613 56.2626 13.744C56.1186 13.2267 56.0466 12.632 56.0466 11.96C56.0466 11.3573 56.1266 10.7973 56.2866 10.28C56.4466 9.76267 56.6786 9.31467 56.9826 8.936C57.2866 8.55733 57.6546 8.26133 58.0866 8.048C58.5186 7.82933 59.0066 7.72 59.5506 7.72C60.0413 7.72 60.4573 7.8 60.7986 7.96C61.1453 8.12 61.4546 8.34667 61.7266 8.64V4.192H63.2946ZM68.935 7.744C69.5323 7.744 70.071 7.84267 70.551 8.04C71.0363 8.232 71.447 8.512 71.783 8.88C72.1243 9.24267 72.3857 9.68267 72.567 10.2C72.7483 10.712 72.839 11.288 72.839 11.928C72.839 12.568 72.7483 13.1467 72.567 13.664C72.3857 14.1813 72.1243 14.6213 71.783 14.984C71.447 15.3467 71.0363 15.6267 70.551 15.824C70.071 16.016 69.5323 16.112 68.935 16.112C68.3323 16.112 67.7883 16.016 67.303 15.824C66.823 15.6267 66.4123 15.3467 66.071 14.984C65.7297 14.6213 65.4657 14.1813 65.279 13.664C65.0977 13.1467 65.007 12.568 65.007 11.928C65.007 11.288 65.0977 10.712 65.279 10.2C65.4657 9.68267 65.7297 9.24267 66.071 8.88C66.4123 8.512 66.823 8.232 67.303 8.04C67.7883 7.84267 68.3323 7.744 68.935 7.744ZM68.935 14.896C69.703 14.896 70.2763 14.6373 70.655 14.12C71.0337 13.6027 71.223 12.8747 71.223 11.936C71.223 10.9973 71.0337 10.2693 70.655 9.752C70.2763 9.22933 69.703 8.968 68.935 8.968C68.1563 8.968 67.575 9.22933 67.191 9.752C66.8123 10.2693 66.623 10.9973 66.623 11.936C66.623 12.8747 66.8123 13.6027 67.191 14.12C67.575 14.6373 68.1563 14.896 68.935 14.896ZM85.7594 7.872L83.1434 16H81.8954C81.746 16 81.6447 15.9013 81.5914 15.704L79.8794 10.408C79.8367 10.2747 79.7994 10.144 79.7674 10.016C79.7354 9.88267 79.706 9.74933 79.6794 9.616C79.6314 9.89333 79.5647 10.1627 79.4794 10.424L77.7434 15.704C77.69 15.9013 77.5754 16 77.3994 16H76.2154L73.5914 7.872H74.8234C74.946 7.872 75.0474 7.90133 75.1274 7.96C75.2127 8.01867 75.2687 8.09333 75.2954 8.184L76.7594 13.176C76.8074 13.3787 76.85 13.576 76.8874 13.768C76.9247 13.96 76.9594 14.152 76.9914 14.344C77.0394 14.152 77.09 13.96 77.1434 13.768C77.202 13.576 77.2607 13.3787 77.3194 13.176L78.9434 8.152C78.97 8.06133 79.0207 7.98933 79.0954 7.936C79.17 7.87733 79.2607 7.848 79.3674 7.848H80.0474C80.1647 7.848 80.2607 7.87733 80.3354 7.936C80.4154 7.98933 80.4687 8.06133 80.4954 8.152L82.0794 13.176C82.138 13.3787 82.194 13.5787 82.2474 13.776C82.3007 13.968 82.3487 14.1627 82.3914 14.36C82.4234 14.168 82.4607 13.976 82.5034 13.784C82.546 13.5867 82.594 13.384 82.6474 13.176L84.1354 8.184C84.162 8.09333 84.2154 8.01867 84.2954 7.96C84.3807 7.90133 84.4767 7.872 84.5834 7.872H85.7594ZM88.5444 9C88.7204 8.81333 88.9044 8.64267 89.0964 8.488C89.2884 8.33333 89.491 8.20267 89.7044 8.096C89.923 7.984 90.155 7.89867 90.4004 7.84C90.651 7.776 90.9177 7.744 91.2004 7.744C91.6484 7.744 92.0404 7.81867 92.3764 7.968C92.7177 8.11733 93.003 8.328 93.2324 8.6C93.4617 8.86667 93.635 9.18933 93.7524 9.568C93.8697 9.94667 93.9284 10.3653 93.9284 10.824V16H92.3604V10.824C92.3604 10.2427 92.227 9.792 91.9604 9.472C91.6937 9.14667 91.2857 8.984 90.7364 8.984C90.3364 8.984 89.9604 9.08 89.6084 9.272C89.2617 9.45867 88.939 9.71467 88.6404 10.04V16H87.0804V7.872H88.0164C88.235 7.872 88.371 7.976 88.4244 8.184L88.5444 9ZM97.8655 4.512V9.088C97.8655 9.328 97.8602 9.56267 97.8495 9.792C97.8388 10.0213 97.8228 10.2533 97.8015 10.488C97.7855 10.7173 97.7642 10.9547 97.7375 11.2C97.7108 11.4453 97.6815 11.704 97.6495 11.976H96.5935C96.5615 11.704 96.5322 11.4453 96.5055 11.2C96.4788 10.9547 96.4548 10.7173 96.4335 10.488C96.4175 10.2533 96.4042 10.0213 96.3935 9.792C96.3828 9.56267 96.3775 9.328 96.3775 9.088V4.512H97.8655ZM96.0415 15.064C96.0415 14.92 96.0682 14.784 96.1215 14.656C96.1748 14.528 96.2495 14.416 96.3455 14.32C96.4415 14.224 96.5535 14.1493 96.6815 14.096C96.8095 14.0373 96.9482 14.008 97.0975 14.008C97.2415 14.008 97.3775 14.0373 97.5055 14.096C97.6335 14.1493 97.7455 14.224 97.8415 14.32C97.9375 14.416 98.0122 14.528 98.0655 14.656C98.1242 14.784 98.1535 14.92 98.1535 15.064C98.1535 15.2133 98.1242 15.352 98.0655 15.48C98.0122 15.608 97.9375 15.72 97.8415 15.816C97.7455 15.912 97.6335 15.9867 97.5055 16.04C97.3775 16.0933 97.2415 16.12 97.0975 16.12C96.9482 16.12 96.8095 16.0933 96.6815 16.04C96.5535 15.9867 96.4415 15.912 96.3455 15.816C96.2495 15.72 96.1748 15.608 96.1215 15.48C96.0682 15.352 96.0415 15.2133 96.0415 15.064Z" fill="#FFD384"/>
</svg>
