<svg width="1920" height="1361" viewBox="0 0 1920 1361" fill="none" xmlns="http://www.w3.org/2000/svg">
<mask id="mask0_309_151" style="mask-type:alpha" maskUnits="userSpaceOnUse" x="0" y="0" width="1920" height="1361">
<rect width="1920" height="1361" fill="#C4C4C4"/>
</mask>
<g mask="url(#mask0_309_151)">
<rect y="100" width="1920" height="980" fill="#D70067"/>
<path d="M626.663 1251.7C368.881 1017.04 12.812 1153.92 -133 1251.7L-98.4372 590H2025.2L2054 1251.7C1782.39 1062.96 1464.99 1173.06 1340.24 1251.7C1073.1 1449.65 753.213 1334.18 626.663 1251.7Z" fill="#E93B81"/>
<path d="M727.663 904.2C469.881 669.537 113.812 806.424 -32 904.2V-441H2155V904.2C1883.39 715.462 1565.99 825.559 1441.24 904.2C1174.1 1102.15 854.213 986.681 727.663 904.2Z" fill="#E52D7B"/>
<path d="M727.663 593.2C469.881 358.537 113.812 495.424 -32 593.2V-752H2155V593.2C1883.39 404.462 1565.99 514.559 1441.24 593.2C1174.1 791.153 854.213 675.681 727.663 593.2Z" fill="#DE1771"/>
<path d="M727.663 295.2C469.881 60.5371 113.812 197.424 -32 295.2V-1050H2155V295.2C1883.39 106.462 1565.99 216.559 1441.24 295.2C1174.1 493.153 854.213 377.681 727.663 295.2Z" fill="#D70067"/>
</g>
</svg>
